{"asset":{"version":"2.0","generator":"Blockbench 4.8.3 glTF exporter"},"scenes":[{"nodes":[9],"name":"blockbench_export"}],"scene":0,"nodes":[{"rotation":[0.1521233861899167,0,0,0.9883615104677607],"translation":[0,0.1363260975203075,0.22749129234024879],"name":"Frame","mesh":0},{"rotation":[0.7071067811865474,0,0,0.7071067811865477],"translation":[0,0.421875,0.08750000000000001],"name":"Cylinder","mesh":1},{"rotation":[0.7071067811865474,0,0,0.7071067811865477],"translation":[0,0.5,0.40625],"name":"Barrel","mesh":2},{"rotation":[0.1521233861899167,0,0,0.9883615104677607],"translation":[-0.09306452282979583,0.3767367158265863,0.03185340223800651],"name":"Door","mesh":3},{"rotation":[0.7071067811865474,0,0,0.7071067811865477],"translation":[0,0.5,0.40625],"name":"Ejector","mesh":4},{"rotation":[0.1521233861899167,0,0,0.9883615104677607],"translation":[0,0.1363260975203075,0.22749129234024879],"name":"Aim","mesh":5},{"translation":[0,0.328125,0.0125],"name":"cuboid","mesh":6},{"rotation":[0,0,0.7071067811865475,0.7071067811865476],"name":"TriggerGuard","mesh":7},{"rotation":[-0.1680693062562119,0.16806930625621327,0.6868425644167315,0.6868425644167365],"translation":[0,0.21875,0.07500000000000001],"name":"Trigger","mesh":8},{"children":[0,1,2,3,4,5,6,7,8]}],"bufferViews":[{"buffer":0,"byteOffset":0,"byteLength":5544,"target":34962,"byteStride":12},{"buffer":0,"byteOffset":5544,"byteLength":5544,"target":34962,"byteStride":12},{"buffer":0,"byteOffset":11088,"byteLength":3696,"target":34962,"byteStride":8},{"buffer":0,"byteOffset":14784,"byteLength":1380,"target":34963},{"buffer":0,"byteOffset":16164,"byteLength":720,"target":34962,"byteStride":12},{"buffer":0,"byteOffset":16884,"byteLength":720,"target":34962,"byteStride":12},{"buffer":0,"byteOffset":17604,"byteLength":480,"target":34962,"byteStride":8},{"buffer":0,"byteOffset":18084,"byteLength":144,"target":34963},{"buffer":0,"byteOffset":18228,"byteLength":720,"target":34962,"byteStride":12},{"buffer":0,"byteOffset":18948,"byteLength":720,"target":34962,"byteStride":12},{"buffer":0,"byteOffset":19668,"byteLength":480,"target":34962,"byteStride":8},{"buffer":0,"byteOffset":20148,"byteLength":144,"target":34963},{"buffer":0,"byteOffset":20292,"byteLength":336,"target":34962,"byteStride":12},{"buffer":0,"byteOffset":20628,"byteLength":336,"target":34962,"byteStride":12},{"buffer":0,"byteOffset":20964,"byteLength":224,"target":34962,"byteStride":8},{"buffer":0,"byteOffset":21188,"byteLength":72,"target":34963},{"buffer":0,"byteOffset":21260,"byteLength":720,"target":34962,"byteStride":12},{"buffer":0,"byteOffset":21980,"byteLength":720,"target":34962,"byteStride":12},{"buffer":0,"byteOffset":22700,"byteLength":480,"target":34962,"byteStride":8},{"buffer":0,"byteOffset":23180,"byteLength":144,"target":34963},{"buffer":0,"byteOffset":23324,"byteLength":480,"target":34962,"byteStride":12},{"buffer":0,"byteOffset":23804,"byteLength":480,"target":34962,"byteStride":12},{"buffer":0,"byteOffset":24284,"byteLength":320,"target":34962,"byteStride":8},{"buffer":0,"byteOffset":24604,"byteLength":120,"target":34963},{"buffer":0,"byteOffset":24724,"byteLength":5568,"target":34962,"byteStride":12},{"buffer":0,"byteOffset":30292,"byteLength":5568,"target":34962,"byteStride":12},{"buffer":0,"byteOffset":35860,"byteLength":3712,"target":34962,"byteStride":8},{"buffer":0,"byteOffset":39572,"byteLength":1392,"target":34963},{"buffer":0,"byteOffset":40964,"byteLength":1824,"target":34962,"byteStride":12},{"buffer":0,"byteOffset":42788,"byteLength":1824,"target":34962,"byteStride":12},{"buffer":0,"byteOffset":44612,"byteLength":1216,"target":34962,"byteStride":8},{"buffer":0,"byteOffset":45828,"byteLength":456,"target":34963},{"buffer":0,"byteOffset":46284,"byteLength":180,"target":34962,"byteStride":12},{"buffer":0,"byteOffset":46464,"byteLength":180,"target":34962,"byteStride":12},{"buffer":0,"byteOffset":46644,"byteLength":120,"target":34962,"byteStride":8},{"buffer":0,"byteOffset":46764,"byteLength":44,"target":34963}],"buffers":[{"byteLength":46808,"uri":"data:application/octet-stream;base64,"}],"accessors":[{"bufferView":0,"componentType":5126,"count":462,"max":[0.125,0.46578964591026306,0.09979697316884995],"min":[-0.09375,-0.4408876597881317,-0.5485139489173889],"type":"VEC3"},{"bufferView":1,"componentType":5126,"count":462,"max":[1,0.9560533165931702,0.9927525520324707],"min":[-1,-0.9552559852600098,-0.9917151927947998],"type":"VEC3"},{"bufferView":2,"componentType":5126,"count":462,"max":[0.796875,0.793692946434021],"min":[0,0],"type":"VEC2"},{"bufferView":3,"componentType":5123,"count":690,"max":[461],"min":[0],"type":"SCALAR"},{"bufferView":4,"componentType":5126,"count":60,"max":[0.12246257066726685,0.25,0.10312499850988388],"min":[-0.12246257066726685,0,-0.10312499850988388],"type":"VEC3"},{"bufferView":5,"componentType":5126,"count":60,"max":[0.8598517775535583,1,1],"min":[-0.8598517775535583,-1,-1],"type":"VEC3"},{"bufferView":6,"componentType":5126,"count":60,"max":[0.4375,0.612500011920929],"min":[0,0],"type":"VEC2"},{"bufferView":7,"componentType":5123,"count":72,"max":[59],"min":[0],"type":"SCALAR"},{"bufferView":8,"componentType":5126,"count":60,"max":[0.0471687838435173,0.9375,0.04374999925494194],"min":[-0.0471687838435173,0,-0.04374999925494194],"type":"VEC3"},{"bufferView":9,"componentType":5126,"count":60,"max":[0.8802467584609985,1,1],"min":[-0.8802467584609985,-1,-1],"type":"VEC3"},{"bufferView":10,"componentType":5126,"count":60,"max":[0.07217500358819962,0.8125],"min":[0,0],"type":"VEC2"},{"bufferView":11,"componentType":5123,"count":72,"max":[59],"min":[0],"type":"SCALAR"},{"bufferView":12,"componentType":5126,"count":28,"max":[0.05303008854389191,0.10450723767280579,0.05229710415005684],"min":[-0.01567692682147026,-1.3198590634027778e-17,-0.04375388100743294],"type":"VEC3"},{"bufferView":13,"componentType":5126,"count":28,"max":[0.9480807185173035,0.7216405272483826,0.899006187915802],"min":[-0.6584947109222412,-0.7196260094642639,-0.9537673592567444],"type":"VEC3"},{"bufferView":14,"componentType":5126,"count":28,"max":[0.5625,0.5],"min":[0.0406000018119812,0],"type":"VEC2"},{"bufferView":15,"componentType":5123,"count":36,"max":[27],"min":[0],"type":"SCALAR"},{"bufferView":16,"componentType":5126,"count":60,"max":[-0.005956216249614954,0.546875,0.06875000149011612],"min":[-0.056543782353401184,0.015625,0.02500000037252903],"type":"VEC3"},{"bufferView":17,"componentType":5126,"count":60,"max":[0.8657278418540955,1,1],"min":[-0.8657278418540955,-1,-1],"type":"VEC3"},{"bufferView":18,"componentType":5126,"count":60,"max":[0.07217500358819962,0.8125],"min":[0,0],"type":"VEC2"},{"bufferView":19,"componentType":5123,"count":72,"max":[59],"min":[0],"type":"SCALAR"},{"bufferView":20,"componentType":5126,"count":40,"max":[0.0031250000465661287,0.7231153845787048,0.8870916962623596],"min":[-0.0031250000465661287,0.6747924089431763,0.8181484341621399],"type":"VEC3"},{"bufferView":21,"componentType":5126,"count":40,"max":[0.9999499917030334,0.9553455710411072,0.9553455710411072],"min":[-0.9999499917030334,-0.9553455710411072,-0.9553455710411072],"type":"VEC3"},{"bufferView":22,"componentType":5126,"count":40,"max":[0.1875,0.1250033974647522],"min":[0,0],"type":"VEC2"},{"bufferView":23,"componentType":5123,"count":60,"max":[39],"min":[0],"type":"SCALAR"},{"bufferView":24,"componentType":5126,"count":464,"max":[0.012500000186264515,0.24062499403953552,0.05204610154032707],"min":[-0.012500000186264515,-0.007704449817538261,-0.13750000298023224],"type":"VEC3"},{"bufferView":25,"componentType":5126,"count":464,"max":[1,0.9762403964996338,0.9998950362205505],"min":[-1,-0.8123091459274292,-0.9907577633857727],"type":"VEC3"},{"bufferView":26,"componentType":5126,"count":464,"max":[0.125,0.5],"min":[0,0],"type":"VEC2"},{"bufferView":27,"componentType":5123,"count":696,"max":[463],"min":[0],"type":"SCALAR"},{"bufferView":28,"componentType":5126,"count":152,"max":[0.2407516986131668,0.015625,0.23900310695171356],"min":[0.07500174641609192,-0.015625,-0.046875],"type":"VEC3"},{"bufferView":29,"componentType":5126,"count":152,"max":[0.9872822761535645,1,0.9995516538619995],"min":[-0.9852388501167297,-1,-0.9997711181640625],"type":"VEC3"},{"bufferView":30,"componentType":5126,"count":152,"max":[0.17624999582767487,0.125],"min":[0,0],"type":"VEC2"},{"bufferView":31,"componentType":5123,"count":228,"max":[151],"min":[0],"type":"SCALAR"},{"bufferView":32,"componentType":5126,"count":15,"max":[0.012194116599857807,-3.686287386450715e-17,0.013941690325737],"min":[-0.12479325383901596,-3.686287386450715e-17,-0.02456609718501568],"type":"VEC3"},{"bufferView":33,"componentType":5126,"count":15,"max":[0,1,1.3912642147278689e-31],"min":[-6.204939559770289e-31,1,-1.9564099251568824e-31],"type":"VEC3"},{"bufferView":34,"componentType":5126,"count":15,"max":[0.125,0.125],"min":[0,0],"type":"VEC2"},{"bufferView":35,"componentType":5123,"count":21,"max":[14],"min":[0],"type":"SCALAR"}],"materials":[{"pbrMetallicRoughness":{"metallicFactor":0,"roughnessFactor":1,"baseColorTexture":{"index":0}},"alphaMode":"MASK","alphaCutoff":0.05,"doubleSided":true},{"pbrMetallicRoughness":{"metallicFactor":0,"roughnessFactor":1,"baseColorTexture":{"index":1}},"alphaMode":"MASK","alphaCutoff":0.05,"doubleSided":true},{"pbrMetallicRoughness":{"metallicFactor":0,"roughnessFactor":1},"alphaMode":"MASK","alphaCutoff":0.05,"doubleSided":true},{"pbrMetallicRoughness":{"metallicFactor":0,"roughnessFactor":1,"baseColorTexture":{"index":2}},"alphaMode":"MASK","alphaCutoff":0.05,"doubleSided":true},{"pbrMetallicRoughness":{"metallicFactor":0,"roughnessFactor":1},"alphaMode":"MASK","alphaCutoff":0.05,"doubleSided":true},{"pbrMetallicRoughness":{"metallicFactor":0,"roughnessFactor":1},"alphaMode":"MASK","alphaCutoff":0.05,"doubleSided":true}],"textures":[{"sampler":0,"source":0,"name":"colt_saa_body.png"},{"sampler":1,"source":1,"name":"colt_saa_cylinder.png"},{"sampler":2,"source":2,"name":"colt_saa_door"}],"samplers":[{"magFilter":9728,"minFilter":9728,"wrapS":33071,"wrapT":33071},{"magFilter":9728,"minFilter":9728,"wrapS":33071,"wrapT":33071},{"magFilter":9728,"minFilter":9728,"wrapS":33071,"wrapT":33071}],"images":[{"mimeType":"image/png","uri":"data:image/png;base64,"},{"mimeType":"image/png","uri":"data:image/png;base64,"},{"mimeType":"image/png","uri":"data:image/png;base64,"}],"meshes":[{"primitives":[{"mode":4,"attributes":{"POSITION":0,"NORMAL":1,"TEXCOORD_0":2},"indices":3,"material":0}]},{"primitives":[{"mode":4,"attributes":{"POSITION":4,"NORMAL":5,"TEXCOORD_0":6},"indices":7,"material":1}]},{"primitives":[{"mode":4,"attributes":{"POSITION":8,"NORMAL":9,"TEXCOORD_0":10},"indices":11,"material":2}]},{"primitives":[{"mode":4,"attributes":{"POSITION":12,"NORMAL":13,"TEXCOORD_0":14},"indices":15,"material":3}]},{"primitives":[{"mode":4,"attributes":{"POSITION":16,"NORMAL":17,"TEXCOORD_0":18},"indices":19,"material":2}]},{"primitives":[{"mode":4,"attributes":{"POSITION":20,"NORMAL":21,"TEXCOORD_0":22},"indices":23,"material":2}]},{"primitives":[{"mode":4,"attributes":{"POSITION":24,"NORMAL":25,"TEXCOORD_0":26},"indices":27,"material":4}]},{"primitives":[{"mode":4,"attributes":{"POSITION":28,"NORMAL":29,"TEXCOORD_0":30},"indices":31,"material":5}]},{"primitives":[{"mode":4,"attributes":{"POSITION":32,"NORMAL":33,"TEXCOORD_0":34},"indices":35,"material":5}]}]}